<svg xmlns="http://www.w3.org/2000/svg" id="Layer_1" data-name="Layer 1" viewBox="0 0 93 92">
  <defs>
    <style>
      .cls-1 {
        fill: #3c4d85;
        stroke-width: 0px;
      }

      .cls-2 {
        fill: none;
        stroke: #ffd800;
        stroke-linecap: round;
        stroke-linejoin: round;
        stroke-width: 1.5px;
      }
    </style>
  </defs>
  <rect class="cls-1" x=".5" width="92" height="92" rx="10" ry="10"/>
  <g>
    <path class="cls-2" d="M59.2,58.53h-26.53c-.96,0-1.74.78-1.74,1.74v1.91h30v-1.91c0-.96-.78-1.74-1.74-1.74Z"/>
    <path class="cls-2" d="M43.95,55.16v-30.12c0-1.1.89-1.98,1.98-1.98h0c1.1,0,1.98.89,1.98,1.98v30.12"/>
    <polyline class="cls-2" points="31.43 62.25 29.2 68.94 62.67 68.94 60.44 62.25"/>
    <line class="cls-2" x1="34.53" y1="62.25" x2="32.55" y2="68.94"/>
    <line class="cls-2" x1="38" y1="62.25" x2="36.27" y2="68.94"/>
    <line class="cls-2" x1="41.23" y1="62.25" x2="39.99" y2="68.94"/>
    <line class="cls-2" x1="44.45" y1="62.25" x2="43.95" y2="68.94"/>
    <line class="cls-2" x1="57.34" y1="62.25" x2="59.32" y2="68.94"/>
    <line class="cls-2" x1="53.87" y1="62.25" x2="55.61" y2="68.94"/>
    <line class="cls-2" x1="50.65" y1="62.25" x2="51.89" y2="68.94"/>
    <line class="cls-2" x1="47.42" y1="62.25" x2="47.92" y2="68.94"/>
    <path class="cls-2" d="M42.8,58.53v-2.74c0-.35.28-.63.63-.63h5.02c.35,0,.63.28.63.63v2.74"/>
    <path class="cls-2" d="M65.91,68.95h6.11c1.36,0,2.51-.83,2.7-1.95l2.68-15.59"/>
    <line class="cls-2" x1="53.3" y1="51.41" x2="53.97" y2="55.45"/>
    <rect class="cls-2" x="51.72" y="47.57" width="27.25" height="3.84" rx="1.67" ry="1.67"/>
    <path class="cls-2" d="M53.43,47.51c0-6.58,5.34-11.92,11.92-11.92s11.92,5.34,11.92,11.92"/>
    <line class="cls-2" x1="71.84" y1="64.74" x2="72.95" y2="55.24"/>
    <path class="cls-2" d="M27.18,34.81c-.84-3.56-4.82-3.35-4.82-3.35v-2.93s4.4-.42,6.91-.2c2.36.2,4.83,1.62,5.86,3.76.61,1.26-4.61-.63-5.03,2.72"/>
    <path class="cls-2" d="M23.19,31.52c-.7,3.16-2.61,5.67-3.5,6.97-.15.22.05.52.25.38,1.37-.89,4.29-2.9,5.44-6.48"/>
    <path class="cls-2" d="M31.26,37.78s-.63.4-2.58.4c-1.6,0-2.44-.4-2.44-.4v-2.66c0-.17.14-.31.31-.31h4.4c.17,0,.31.14.31.31v2.66Z"/>
    <polyline class="cls-2" points="22.36 28.53 19.9 28.53 19.9 31.46 22.36 31.46"/>
    <path class="cls-2" d="M38.73,55.45c-.63-3.18-2.07-6.69-4.95-10.17-1.71-2.07-1.5-4.16-1.26-5.65.28-1.7-1.25-2.21-1.25-2.21"/>
    <path class="cls-2" d="M26.24,37.53c-2.72,1.68.46,3.65-.01,4.08-1.57,1.4.01,3.34.01,3.33,0,0-1.58,1.12-.68,3.22-2.05,1.26-4.58,3.13-5.53,5.67-2.07,5.57.53,12.07,1.33,14.15.21.55.67.95,1.26.95h3.42"/>
  </g>
</svg>